:version 1.10
:name ASF
:units
  mass 1
  length 1
  angle deg
:documentation
  ASF file generated by Kaydara
:root
  axis xyz
  order  tx ty tz rx ry rz
  position 0 0 0
  orientation 0 0 0
:bonedata
  begin
    id 1
    name RightUpLegDummy
    direction -0.718183 -0.695806 0.00816078
    length 4.904
    axis 0 0 0 xyz
  end
  begin
    id 2
    name RightUpLeg
    direction 3.53373e-006 -0.995788 0.0916898
    length 17.4976
    axis -3.49089 -0.000906625 0.000286804 xyz
    dof rx ry rz
  end
  begin
    id 3
    name RightLeg
    direction 0.00371092 -0.995096 -0.0988419
    length 16.5821
    axis 3.68512 0.0193738 -0.131023 xyz
    dof rx ry rz
  end
  begin
    id 4
    name RightFoot
    direction 0.00079151 -0.46099 0.887405
    length 3.77069
    axis 4.81691e-005 -0.120479 -0.188788 xyz
    dof rx ry rz
  end
  begin
    id 5
    name RightToes
    direction 0 0 0
    length 0
    axis 0 0 0 xyz
    dof rx ry rz
  end
  begin
    id 6
    name SpineDummy
    direction 8.3039e-015 1 4.57515e-016
    length 4.6813
    axis 0 0 0 xyz
  end
  begin
    id 7
    name Spine
    direction -3.15643e-008 0.999988 0.00495137
    length 10.1015
    axis -0.001389 0.000121418 2.40972e-006 xyz
    dof rx ry rz
  end
  begin
    id 8
    name Spine1
    direction 0 0 0
    length 0
    axis -0.001389 0.000121451 1.30017e-006 xyz
    dof rx ry rz
  end
  begin
    id 9
    name HEadDummy
    direction -1.99912e-008 0.999999 0.00127422
    length 3.43865
    axis -0.001389 0.000121451 1.30017e-006 xyz
  end
  begin
    id 10
    name HEad
    direction 0 0 0
    length 0
    axis 0 0 0 xyz
    dof rx ry rz
  end
  begin
    id 11
    name LeftShoulder1Dummy
    direction 0.998891 -0.0402509 -0.0244456
    length 3.5433
    axis -0.001389 0.000121451 1.30017e-006 xyz
  end
  begin
    id 12
    name LeftShoulder1
    direction 0.99951 -0.000327763 0.0313091
    length 4.05031
    axis -0.001389 0.000121451 1.30017e-006 xyz
    dof rx ry rz
  end
  begin
    id 13
    name LeftArm
    direction 0.998561 -0.00100056 -0.0536182
    length 10.3537
    axis -23.1894 0.134784 0.967509 xyz
    dof rx ry rz
  end
  begin
    id 14
    name LeftForeArm
    direction 0.998903 0.00866432 0.046012
    length 8.70632
    axis -9.91835 -0.06569 -0.177794 xyz
    dof rx ry rz
  end
  begin
    id 15
    name LeftHand
    direction 0 0 0
    length 0
    axis 0 0 0 xyz
    dof rx ry rz
  end
  begin
    id 16
    name RightShoulderDummy
    direction -0.998891 -0.0402509 -0.0244414
    length 3.5433
    axis -0.001389 0.000121451 1.30017e-006 xyz
  end
  begin
    id 17
    name RightShoulder
    direction -0.99951 -0.000327807 0.0313133
    length 4.05031
    axis 0.215806 0.000203643 -0.0068026 xyz
    dof rx ry rz
  end
  begin
    id 18
    name RightArm
    direction -0.998573 -0.000999564 -0.053403
    length 10.3947
    axis -23.2009 -0.134239 -0.964101 xyz
    dof rx ry rz
  end
  begin
    id 19
    name RightForeArm
    direction -0.998898 0.00868028 0.0461306
    length 8.68355
    axis -9.92322 0.0658061 0.178868 xyz
    dof rx ry rz
  end
  begin
    id 20
    name RightHand
    direction 0 0 0
    length 0
    axis 0 0 0 xyz
    dof rx ry rz
  end
  begin
    id 21
    name LeftUpLegDummy
    direction 0.718183 -0.695806 0.00816078
    length 4.904
    axis 0 0 0 xyz
  end
  begin
    id 22
    name LeftUpLeg
    direction -6.81752e-006 -0.995793 0.0916337
    length 17.4976
    axis -3.48766 0.00143442 -0.000524262 xyz
    dof rx ry rz
  end
  begin
    id 23
    name LeftLeg
    direction -0.00601358 -0.995091 -0.0987824
    length 16.5821
    axis 3.68178 -0.00654042 -0.000285133 xyz
    dof rx ry rz
  end
  begin
    id 24
    name LeftFoot
    direction -0.00417578 -0.460984 0.887399
    length 3.77069
    axis 1.87233e-006 4.66016e-005 -8.6538e-006 xyz
    dof rx ry rz
  end
  begin
    id 25
    name LeftToes
    direction 0 0 0
    length 0
    axis 0 0 0 xyz
    dof rx ry rz
  end
:hierarchy
  begin
    root RightUpLegDummy SpineDummy LeftUpLegDummy
    RightUpLegDummy RightUpLeg
    RightUpLeg RightLeg
    RightLeg RightFoot
    RightFoot RightToes
    SpineDummy Spine
    Spine Spine1
    Spine1 HEadDummy LeftShoulder1Dummy RightShoulderDummy
    HEadDummy HEad
    LeftShoulder1Dummy LeftShoulder1
    LeftShoulder1 LeftArm
    LeftArm LeftForeArm
    LeftForeArm LeftHand
    RightShoulderDummy RightShoulder
    RightShoulder RightArm
    RightArm RightForeArm
    RightForeArm RightHand
    LeftUpLegDummy LeftUpLeg
    LeftUpLeg LeftLeg
    LeftLeg LeftFoot
    LeftFoot LeftToes
  end

:SAMPLES-PER-SECOND 30
:FULLY-SPECIFIED
:DEGREES
33
root  72.3405 40.2775 -0.986256 -41.7575 -87.1241 39.9359
RightUpLeg  2.23929 -9.28841 -6.09194
RightLeg  8.49166 -3.96713 2.9978
RightFoot  -7.62018 -0.0339246 -0.546487
RightToes  0.000481922 0.542163 -0.142578
Spine  -1.3696 -0.322291 1.54081
Spine1  13.8224 -0.644923 1.01325
HEad  -1.15588 2.67193 -3.90252
LeftShoulder1  8.7467 -12.1109 -48.9149
LeftArm  -18.4624 10.9773 -15.0812
LeftForeArm  27.9548 -24.0907 -3.71727
LeftHand  -0.25398 0.0180481 5.50724
RightShoulder  5.24356 8.47875 37.7397
RightArm  -19.1446 -14.9162 21.014
RightForeArm  -1.34117 9.26744 4.42209
RightHand  -1.14456 4.72109 -13.4481
LeftUpLeg  4.65759 4.46048 2.65543
LeftLeg  3.33326 8.78148 -2.70139
LeftFoot  -5.14822 0.14309 -2.07317
LeftToes  1.06245e-005 4.65869e-005 -8.65513e-006
34
root  72.1959 40.2537 -1.15787 -46.2538 -87.1581 44.3041
RightUpLeg  2.25823 -9.63892 -6.02951
RightLeg  9.18778 -3.5217 2.94556
RightFoot  -8.02222 -0.0268779 -0.94726
RightToes  0.000481922 0.542163 -0.142578
Spine  -1.25058 -0.291735 2.01913
Spine1  14.3378 -0.563966 0.81423
HEad  -1.76298 2.74761 -4.82386
LeftShoulder1  9.09046 -12.2599 -50.3385
LeftArm  -14.1538 9.65666 -20.2166
LeftForeArm  27.4993 -19.2085 -3.37336
LeftHand  -0.25398 0.0180481 5.50724
RightShoulder  5.86894 9.17138 40.1636
RightArm  -21.1645 -15.3597 25.8807
RightForeArm  -2.12411 7.18613 3.82249
RightHand  -0.871161 3.59546 -11.5029
LeftUpLeg  5.03984 4.53156 2.80798
LeftLeg  3.3634 8.80936 -2.66026
LeftFoot  -5.30044 0.146488 -2.17348
LeftToes  1.06245e-005 4.65869e-005 -8.65513e-006
35
root  72.001 40.2307 -1.34158 -48.6128 -87.1755 46.6296
RightUpLeg  2.36507 -9.67935 -5.76821
RightLeg  9.65474 -3.45464 2.76167
RightFoot  -8.47955 -0.0277826 -1.18483
RightToes  0.000481922 0.542163 -0.142578
Spine  -1.29489 -0.390053 2.45108
Spine1  14.5382 -0.61737 0.610319
HEad  -2.2224 3.03551 -5.17655
LeftShoulder1  9.23627 -12.3056 -50.9852
LeftArm  -13.3066 9.16988 -25.4206
LeftForeArm  30.5454 -14.0111 -3.85948
LeftHand  -0.25398 0.0180481 5.50724
RightShoulder  6.25486 9.56167 41.637
RightArm  -22.958 -16.0811 30.8283
RightForeArm  0.218549 6.47852 3.2852
RightHand  -0.54127 2.73473 -7.96915
LeftUpLeg  5.35851 4.6653 3.0949
LeftLeg  3.47557 8.64325 -2.6336
LeftFoot  -5.64208 0.162557 -2.58735
LeftToes  1.06245e-005 4.65869e-005 -8.65513e-006
36
root  71.7771 40.2034 -1.52889 -47.9939 -87.1677 46.0326
RightUpLeg  2.62641 -9.51246 -5.41242
RightLeg  9.81937 -3.70982 2.63231
RightFoot  -8.99255 -0.0337294 -1.32432
RightToes  0.000481922 0.542163 -0.142578
Spine  -1.42408 -0.578493 2.70262
Spine1  14.6686 -0.876586 0.772971
HEad  -3.01587 3.87992 -5.03586
LeftShoulder1  9.5308 -12.5419 -51.8192
LeftArm  -14.5392 9.97474 -29.5069
LeftForeArm  30.7097 -10.4328 -4.04714
LeftHand  -0.25398 0.0180481 5.50724
RightShoulder  6.46696 9.79166 42.3503
RightArm  -22.207 -16.8025 34.6809
RightForeArm  1.56067 7.33336 3.78311
RightHand  -0.338587 2.02276 -5.58627
LeftUpLeg  5.5206 4.80974 3.46297
LeftLeg  3.82638 8.3986 -2.51984
LeftFoot  -6.00982 0.182185 -3.13532
LeftToes  1.06245e-005 4.65869e-005 -8.65513e-006
37
root  71.5534 40.1505 -1.71927 -45.6603 -87.1014 43.7188
RightUpLeg  2.85059 -9.48437 -5.11059
RightLeg  10.1421 -3.92068 2.61336
RightFoot  -9.70038 -0.0450052 -1.44535
RightToes  0.000481922 0.542163 -0.142578
Spine  -1.56491 -0.733487 2.86567
Spine1  14.9602 -1.15652 1.20255
HEad  -4.05741 4.48126 -5.1912
LeftShoulder1  9.85854 -12.8596 -52.5453
LeftArm  -15.8147 11.4385 -31.5971
LeftForeArm  26.5711 -9.42525 -3.81232
LeftHand  -0.25398 0.0180481 5.50724
RightShoulder  6.57375 9.96648 42.4997
RightArm  -18.7814 -17.2128 36.8727
RightForeArm  -3.25906 9.15306 5.38733
RightHand  -0.471831 1.39293 -8.12927
LeftUpLeg  5.38273 5.11841 3.8289
LeftLeg  4.77469 7.94227 -2.24478
LeftFoot  -6.63087 0.175117 -3.27172
LeftToes  1.06245e-005 4.65869e-005 -8.65513e-006
